<svg id="cancel-24px.svg" data-name="cancel-24px (1)" xmlns="http://www.w3.org/2000/svg" width="24.797" height="24.797" viewBox="0 0 24.797 24.797">
  <path id="Caminho_2076" data-name="Caminho 2076" d="M0,0H24.8V24.8H0Z" fill="none" opacity="0.87"/>
  <path id="Caminho_2077" data-name="Caminho 2077" d="M12.332,2A10.332,10.332,0,1,0,22.664,12.332,10.323,10.323,0,0,0,12.332,2Zm0,18.6A8.266,8.266,0,1,1,20.6,12.332,8.277,8.277,0,0,1,12.332,20.6ZM16.041,7.166l-3.709,3.709L8.623,7.166,7.166,8.623l3.709,3.709L7.166,16.041,8.623,17.5l3.709-3.709L16.041,17.5,17.5,16.041l-3.709-3.709L17.5,8.623Z" transform="translate(0.066 0.066)" fill="#189fe3"/>
</svg>
